#N canvas 160 130 1152 502 10;
#X text 19 466 http://yvanvolochine.com;
#X text 203 25 pd-extended's [counter];
#X obj 235 89 inlet;
#X obj 235 205 f \$1;
#X obj 236 277 t f f;
#X obj 457 272 loadbang;
#X obj 457 294 f \$1;
#X obj 457 316 s \$0-min;
#X obj 599 273 loadbang;
#X obj 599 295 f \$2;
#X obj 599 317 route 0;
#X text 655 317 ???;
#X obj 599 339 s \$0-max;
#X obj 704 98 inlet reset;
#X obj 704 120 route bang;
#X obj 733 192 s \$0-jump;
#X obj 267 356 s \$0-store;
#X obj 285 101 r \$0-store;
#X obj 235 111 t b;
#X obj 475 135 r \$0-max;
#X obj 264 238 mod 1e+09;
#X obj 303 139 r \$0-jump;
#X obj 294 120 r \$0-reset;
#X obj 235 388 outlet;
#N canvas 483 222 450 300 LICENSE 0;
#X text 18 8 This program is free software: you can redistribute it
and/or modify it under the terms of the GNU General Public License
as published by the Free Software Foundation \, either version 3 of
the License \, or (at your option) any later version. This program
is distributed in the hope that it will be useful \, but WITHOUT ANY
WARRANTY \; without even the implied warranty of MERCHANTABILITY or
FITNESS FOR A PARTICULAR PURPOSE. See the GNU General Public License
for more details. You should have received a copy of the GNU General
Public License along with this program. If not \, see <http://www.gnu.org/licenses/>.
;
#X restore 692 464 pd LICENSE;
#X obj 883 101 inlet min;
#X obj 1003 100 inlet max;
#X floatatom 887 172 5 0 0 0 - - -;
#X floatatom 1004 181 5 0 0 0 - - -;
#X obj 475 166 + 1;
#X obj 266 313 +;
#X obj 828 251 s \$0-reset;
#X obj 978 249 s \$0-max;
#X obj 467 89 inlet direction;
#X obj 134 178 bng 15 250 50 0 empty empty empty 17 7 0 10 -262144
-1 -1;
#X connect 2 0 18 0;
#X connect 3 0 20 0;
#X connect 4 1 30 0;
#X connect 5 0 6 0;
#X connect 6 0 7 0;
#X connect 8 0 9 0;
#X connect 9 0 10 0;
#X connect 10 1 12 0;
#X connect 13 0 14 0;
#X connect 14 0 27 0;
#X connect 14 1 15 0;
#X connect 17 0 3 1;
#X connect 18 0 3 0;
#X connect 18 0 34 0;
#X connect 19 0 29 0;
#X connect 20 0 4 0;
#X connect 21 0 3 1;
#X connect 22 0 3 1;
#X connect 25 0 27 0;
#X connect 26 0 28 0;
#X connect 27 0 31 0;
#X connect 28 0 32 0;
#X connect 29 0 20 1;
#X connect 30 0 16 0;
#X connect 30 0 23 0;
#X connect 33 0 30 1;
