#N canvas -14 100 1037 520 10;
#X obj 130 350 tgl 15 0 empty empty empty 17 7 0 10 -262144 -1 -1 0
1;
#X obj 320 710 midiout;
#X obj 130 420 select 0 1;
#X msg 526 696 252;
#X msg 390 660 248;
#X floatatom 344 155 5 0 0 0 - - -;
#X obj 170 280 select 53;
#X obj 262 280 select 57;
#X obj 335 282 select 48;
#X obj 414 284 select 49;
#X obj 497 285 select 46;
#X obj 579 287 select 60;
#X text 80 20 5 (53) : Start / Stop sequencer 9 (57) : Tap tempo 0
(48) : UnMute All Tracks 1 (49) : Mute All Tracks . (46) : PGM UP <
(60) : PGM DOWN;
#X obj 390 620 metro 40;
#X text 251 756 MIDI Commands 252 : FC -> STOP 250 : FA -> START 248
: F8 -> CLOCK (conditionné par METRO;
#X msg 270 660 250;
#X obj 40 600 send reset;
#X obj 260 340 send tap;
#X obj 380 470 receive midiclock;
#N canvas 0 80 1244 945 stopcontrol 0;
#X msg 790 -190 1;
#X msg 790 -30 0, f 4;
#X msg 701 57 1;
#X obj 700 100 t f b;
#X obj 700 155 + 1;
#X floatatom 590 160 5 0 0 0 - - -;
#X obj 860 40 metro 944;
#X obj 750 -70 bng 15 250 50 0 empty empty empty 17 7 0 10 -262144
-1 -1;
#X obj 590 70 select 1;
#X floatatom 590 40 5 0 0 0 - - -;
#X msg 590 110 1;
#X floatatom 590 220 5 0 0 0 - - -;
#X obj 533 210 == 2;
#X obj 220 20 tgl 15 0 empty empty empty 17 7 0 10 -262144 -1 -1 0
1;
#X obj 470 250 select 0 1;
#X msg 422 322 0;
#X msg 476 327 1;
#X obj 220 310 ==;
#X floatatom 442 365 5 0 0 0 - - -;
#X floatatom 660 -180 5 0 0 0 - - -;
#X msg 190 170 99;
#X obj 224 62 select 0 1;
#X msg 260 170 1;
#X obj 750 -110 select 1;
#X obj 950 -240 inlet metro;
#X text 420 -270 Stop Control : let current bar end before stop;
#X obj 850 -240 inlet start;
#X obj 220 -220 inlet stop;
#X obj 750 340 outlet stop;
#X obj 860 100 bng 15 250 50 0 empty empty empty 17 7 0 10 -262144
-1 -1;
#X floatatom 1020 -150 5 0 0 0 - - -;
#X obj 750 -240 loadbang;
#X obj 640 0 > 96, f 8;
#X obj 560 0 > 98, f 8;
#X connect 0 0 6 0;
#X connect 0 0 20 0;
#X connect 1 0 6 0;
#X connect 2 0 3 0;
#X connect 3 0 4 0;
#X connect 4 0 5 0;
#X connect 5 0 4 1;
#X connect 5 0 11 0;
#X connect 5 0 12 0;
#X connect 5 0 33 0;
#X connect 6 0 2 0;
#X connect 6 0 29 0;
#X connect 7 0 1 0;
#X connect 7 0 13 0;
#X connect 7 0 28 0;
#X connect 8 0 10 0;
#X connect 9 0 8 0;
#X connect 10 0 5 0;
#X connect 12 0 14 0;
#X connect 13 0 21 0;
#X connect 14 0 15 0;
#X connect 14 1 16 0;
#X connect 15 0 18 0;
#X connect 16 0 18 0;
#X connect 17 0 19 0;
#X connect 18 0 17 0;
#X connect 19 0 23 0;
#X connect 20 0 17 1;
#X connect 21 0 20 0;
#X connect 21 1 22 0;
#X connect 22 0 17 1;
#X connect 23 0 7 0;
#X connect 24 0 6 1;
#X connect 24 0 30 0;
#X connect 26 0 0 0;
#X connect 27 0 13 0;
#X connect 31 0 0 0;
#X connect 33 0 9 0;
#X restore 778 371 pd stopcontrol;
#X obj 668 291 receive reset;
#X obj 140 600 send start;
#X obj 768 291 receive start;
#X text 668 261 Stop control : wait for end of bar before stop;
#X obj 736 387 bng 15 250 50 0 empty empty empty 17 7 0 10 -262144
-1 -1;
#X obj 868 291 receive midiclock;
#N canvas 0 302 450 325 mute_off_on 0;
#X obj 145 90 bng 15 250 50 0 empty empty empty 17 7 0 10 -262144 -1
-1;
#X obj 33 287 ctlout 94 1;
#X obj 135 287 ctlout 94 2;
#X obj 226 287 ctlout 94 3;
#X obj 312 287 ctlout 94 4;
#X obj 397 287 ctlout 94 5;
#X obj 484 287 ctlout 94 6;
#X obj 569 287 ctlout 94 7;
#X obj 655 287 ctlout 94 8;
#X msg 145 146 0;
#X msg 593 146 127;
#X obj 593 83 bng 15 250 50 0 empty empty empty 17 7 0 10 -262144 -1
-1;
#X text 620 90 Mute ALL;
#X text 180 90 UnMute ALL;
#X text 298 56 Mute / unmute All tracks;
#X obj 130 30 inlet unmute;
#X obj 580 30 inlet mute;
#X connect 0 0 9 0;
#X connect 9 0 1 0;
#X connect 9 0 2 0;
#X connect 9 0 3 0;
#X connect 9 0 4 0;
#X connect 9 0 5 0;
#X connect 9 0 6 0;
#X connect 9 0 7 0;
#X connect 9 0 8 0;
#X connect 10 0 1 0;
#X connect 10 0 2 0;
#X connect 10 0 3 0;
#X connect 10 0 4 0;
#X connect 10 0 5 0;
#X connect 10 0 6 0;
#X connect 10 0 7 0;
#X connect 10 0 8 0;
#X connect 11 0 10 0;
#X connect 15 0 0 0;
#X connect 16 0 11 0;
#X restore 340 340 pd mute_off_on;
#N canvas 68 93 917 512 pgmchange 1;
#X floatatom 640 290 5 0 0 0 - - -;
#X obj 450 220 pgmin;
#X obj 327 637 pgmout;
#X obj 100 100 inlet nextpgm;
#X obj 200 100 inlet prevpgm;
#X floatatom 327 607 5 0 0 0 - - -;
#X floatatom 390 260 5 0 0 0 - - -;
#X text 290 30 Program change UP/DOWN;
#X obj 100 180 t b b;
#X obj 267 204 t b b;
#X obj 375 308 spigot;
#X msg 550 200 1;
#X msg 650 210 0, f 5;
#X obj 530 100 inlet start;
#X obj 650 100 inlet stop;
#X obj 540 150 t b b;
#X floatatom 500 320 5 0 0 0 - - -;
#X obj 620 159 bng 15 250 50 0 empty empty empty 17 7 0 10 -262144
-1 -1;
#X msg 230 240 1;
#X msg 351 239 -1;
#X obj 328 517 counter;
#X msg 398 432 1;
#X msg 474 435 128;
#X text 372 408 Minimum;
#X text 480 408 Maximum;
#X obj 453 368 loadbang;
#X obj 37 156 bng 15 250 50 0 empty empty empty 17 7 0 10 -262144 -1
-1;
#X obj 181 150 bng 15 250 50 0 empty empty empty 17 7 0 10 -262144
-1 -1;
#X obj 597 131 loadbang;
#X connect 0 0 2 1;
#X connect 1 0 6 0;
#X connect 1 1 0 0;
#X connect 3 0 8 0;
#X connect 3 0 26 0;
#X connect 4 0 9 0;
#X connect 4 0 27 0;
#X connect 5 0 2 0;
#X connect 6 0 10 0;
#X connect 8 0 20 0;
#X connect 8 1 18 0;
#X connect 8 1 11 0;
#X connect 9 0 20 0;
#X connect 9 1 19 0;
#X connect 9 1 11 0;
#X connect 10 0 20 2;
#X connect 11 0 16 0;
#X connect 12 0 16 0;
#X connect 13 0 15 0;
#X connect 14 0 12 0;
#X connect 15 0 6 0;
#X connect 15 1 11 0;
#X connect 16 0 10 1;
#X connect 17 0 11 0;
#X connect 18 0 20 1;
#X connect 19 0 20 1;
#X connect 20 0 5 0;
#X connect 21 0 20 3;
#X connect 22 0 20 4;
#X connect 25 0 21 0;
#X connect 25 0 22 0;
#X connect 28 0 11 0;
#X restore 510 470 pd pgmchange;
#X msg 370 580 0;
#X obj 680 410 receive stop;
#X obj 580 410 receive start;
#X obj 689 67 netreceive -u -b 50000;
#X floatatom 570 143 5 0 0 0 - - -;
#X obj 160 520 t b b b;
#X obj 792 408 t b b;
#X obj 1032 248 netreceive -u -b 50001;
#X obj 1032 288 unpack int int int int;
#X floatatom 1012 328 5 0 0 0 - - -;
#X floatatom 1062 328 5 0 0 0 - - -;
#X floatatom 1112 328 5 0 0 0 - - -;
#X floatatom 1152 328 5 0 0 0 - - -;
#X floatatom 972 438 5 0 0 0 - - -;
#X floatatom 1062 438 5 0 0 0 - - -;
#X floatatom 1162 438 5 0 0 0 - - -;
#X floatatom 1252 438 5 0 0 0 - - -;
#X obj 1252 358 - 48;
#X obj 978 366 - 48;
#X obj 1062 358 - 48;
#X obj 1162 358 - 48;
#X obj 972 398 * 1000;
#X obj 1062 398 * 100;
#X obj 1162 398 * 10;
#X obj 1102 498 +;
#X floatatom 1132 588 5 0 0 0 - - -;
#X obj 1022 468 +;
#X obj 1170 548 +;
#X obj 1216 591 / 24;
#X floatatom 1198 629 5 0 0 0 - - -;
#X obj 1272 488 loadbang;
#X msg 1272 528 840;
#X obj 1212 678 send midiclock;
#X text 1042 218 receive value of Tap Tempo Control from python;
#X obj 446 573 receive midiclock;
#X connect 0 0 2 0;
#X connect 2 0 16 0;
#X connect 2 1 33 0;
#X connect 3 0 1 0;
#X connect 4 0 1 0;
#X connect 5 0 6 0;
#X connect 5 0 7 0;
#X connect 5 0 8 0;
#X connect 5 0 9 0;
#X connect 5 0 10 0;
#X connect 5 0 11 0;
#X connect 6 0 0 0;
#X connect 8 0 26 0;
#X connect 9 0 26 1;
#X connect 10 0 27 0;
#X connect 11 0 27 1;
#X connect 13 0 4 0;
#X connect 15 0 1 0;
#X connect 19 0 24 0;
#X connect 19 0 34 0;
#X connect 20 0 19 0;
#X connect 22 0 19 1;
#X connect 25 0 19 2;
#X connect 28 0 13 0;
#X connect 29 0 27 3;
#X connect 30 0 27 2;
#X connect 31 0 32 0;
#X connect 32 0 5 0;
#X connect 33 0 21 0;
#X connect 33 1 13 0;
#X connect 33 2 15 0;
#X connect 34 0 3 0;
#X connect 34 1 28 0;
#X connect 35 0 36 0;
#X connect 36 0 37 0;
#X connect 36 1 38 0;
#X connect 36 2 39 0;
#X connect 36 3 40 0;
#X connect 37 0 46 0;
#X connect 38 0 47 0;
#X connect 39 0 48 0;
#X connect 40 0 45 0;
#X connect 41 0 54 0;
#X connect 42 0 54 1;
#X connect 43 0 52 1;
#X connect 44 0 55 1;
#X connect 45 0 44 0;
#X connect 46 0 49 0;
#X connect 47 0 50 0;
#X connect 48 0 51 0;
#X connect 49 0 41 0;
#X connect 50 0 42 0;
#X connect 51 0 43 0;
#X connect 52 0 55 0;
#X connect 54 0 52 0;
#X connect 55 0 53 0;
#X connect 55 0 56 0;
#X connect 56 0 57 0;
#X connect 57 0 60 0;
#X connect 58 0 59 0;
#X connect 59 0 56 0;
#X connect 62 0 13 1;
